<svg xmlns="http://www.w3.org/2000/svg" viewBox="0 0 241.08 243.35"><defs><style>.cls-1{fill:#fff;}.cls-1,.cls-2{stroke:#000;stroke-miterlimit:10;stroke-width:8px;}.cls-2{fill:none;}</style></defs><g id="Layer_2" data-name="Layer 2"><g id="Layer_1-2" data-name="Layer 1"><circle class="cls-1" cx="122.6" cy="133.85" r="105.5"/><line class="cls-1" x1="122.6" x2="122.6" y2="28.35"/><line class="cls-1" x1="17.1" y1="134.35" x2="228.1" y2="134.35"/><line class="cls-1" x1="221.37" y1="90.73" x2="23.82" y2="90.73"/><line class="cls-1" x1="48.9" y1="58.37" x2="196.29" y2="58.37"/><line class="cls-1" x1="222.37" y1="172.37" x2="24.82" y2="172.37"/><line class="cls-1" x1="49.9" y1="208.73" x2="197.29" y2="208.73"/><ellipse class="cls-2" cx="123.1" cy="134.35" rx="20" ry="105"/><ellipse class="cls-2" cx="123.1" cy="134.35" rx="47" ry="105"/><ellipse class="cls-2" cx="124.1" cy="133.85" rx="82" ry="105.5"/><line class="cls-1" x1="206.1" y1="37.38" x2="218.1" y2="21.35"/><line class="cls-1" x1="213.16" y1="47.33" x2="231.03" y2="31.91"/><line class="cls-1" x1="221.37" y1="55.09" x2="240.1" y2="50.35"/><line class="cls-1" x1="19.99" y1="202.03" x2="1.57" y2="209.88"/><line class="cls-1" x1="27.97" y1="211.25" x2="8.76" y2="224.95"/><line class="cls-1" x1="33.57" y1="221.06" x2="24.53" y2="238.13"/></g></g></svg>