<svg xmlns="http://www.w3.org/2000/svg" viewBox="0 0 832.06 551.5"><defs><style>.cls-1{fill:#fff;}.cls-1,.cls-2{stroke:#000;stroke-miterlimit:10;stroke-width:8px;}</style></defs><g id="Layer_2" data-name="Layer 2"><g id="Layer_1-2" data-name="Layer 1"><rect class="cls-1" x="29.53" y="352.16" width="773" height="195.35" rx="6.1"/><rect class="cls-1" x="152.03" y="304.5" width="528.5" height="243" rx="5.82"/><rect class="cls-1" x="214.03" y="227.29" width="397.68" height="76.42" rx="6.1"/><rect class="cls-1" x="249.56" y="192.44" width="327.46" height="34.47" rx="6.1"/><rect class="cls-1" x="403.04" y="24.44" width="19.98" height="34.47" rx="1.51"/><rect class="cls-1" x="214.23" y="265.5" width="397.68" height="38.21" rx="6.1"/><path class="cls-1" d="M546,192.5H278.92a133.56,133.56,0,0,1,267.11,0Z"/><line class="cls-1" y1="547.5" x2="832.06" y2="547.5"/><line class="cls-1" x1="197.53" y1="264.5" x2="628.53" y2="264.5"/><line class="cls-1" x1="412.48" y1="24.44" x2="412.48"/><rect class="cls-2" x="236.73" y="241.3" width="2.07" height="10.24"/><rect class="cls-2" x="329.73" y="241.3" width="2.07" height="10.24"/><rect class="cls-2" x="496.73" y="241.3" width="2.07" height="10.24"/><rect class="cls-2" x="537.73" y="241.3" width="2.07" height="10.24"/><rect class="cls-2" x="456.73" y="241.3" width="2.07" height="10.24"/><rect class="cls-2" x="371.73" y="241.3" width="2.07" height="10.24"/><rect class="cls-2" x="282.73" y="241.3" width="2.07" height="10.24"/><rect class="cls-2" x="576.26" y="241.3" width="2.07" height="10.24"/><rect class="cls-2" x="414.41" y="241.3" width="2.07" height="10.24"/><line class="cls-2" x1="414.03" y1="264.5" x2="414.03" y2="304.5"/><line class="cls-1" x1="306.85" y1="264.5" x2="306.85" y2="303.71"/><line class="cls-2" x1="521.14" y1="263.69" x2="521.14" y2="303.69"/><rect class="cls-1" x="132.69" y="352.5" width="560.78" height="38" rx="2.37"/><path class="cls-1" d="M603.49,352.5H222.57c-6.56,0-10.66-1.39-7.39-2.5l190.49-64.66c3.28-1.12,11.49-1.12,14.77,0L610.88,350C614.15,351.11,610.05,352.5,603.49,352.5Z"/><line class="cls-1" x1="214.23" y1="390.5" x2="214.03" y2="547.5"/><line class="cls-1" x1="611.71" y1="390.5" x2="611.71" y2="547.5"/><line class="cls-1" x1="214.23" y1="499.88" x2="612.03" y2="499.88"/><line class="cls-1" x1="415.98" y1="390.5" x2="415.98" y2="499.88"/><line class="cls-1" x1="513.98" y1="390.5" x2="513.98" y2="499.88"/><line class="cls-1" x1="314.98" y1="390.5" x2="314.98" y2="499.88"/><line class="cls-1" x1="264.98" y1="390.5" x2="264.98" y2="499.88"/><line class="cls-1" x1="365.98" y1="390.5" x2="365.98" y2="499.88"/><line class="cls-1" x1="464.98" y1="390.5" x2="464.98" y2="499.88"/><line class="cls-1" x1="562.98" y1="390.5" x2="562.98" y2="499.88"/><rect class="cls-2" x="66.67" y="384.78" width="6" height="19.1"/><rect class="cls-2" x="107.67" y="384.78" width="6" height="19.1"/><rect class="cls-2" x="66.67" y="429.78" width="6" height="19.1"/><rect class="cls-2" x="107.67" y="429.78" width="6" height="19.1"/><rect class="cls-2" x="66.67" y="472.78" width="6" height="19.1"/><rect class="cls-2" x="107.67" y="472.78" width="6" height="19.1"/><rect class="cls-2" x="719.05" y="385.78" width="6" height="19.1"/><rect class="cls-2" x="760.05" y="385.78" width="6" height="19.1"/><rect class="cls-2" x="719.05" y="430.78" width="6" height="19.1"/><rect class="cls-2" x="760.05" y="430.78" width="6" height="19.1"/><rect class="cls-2" x="719.05" y="473.78" width="6" height="19.1"/><rect class="cls-2" x="760.05" y="473.78" width="6" height="19.1"/></g></g></svg>