<svg xmlns="http://www.w3.org/2000/svg" viewBox="0 0 841.51 443.71"><defs><style>.cls-1{fill:#fff;stroke:#000;stroke-miterlimit:10;stroke-width:8px;}</style></defs><g id="Layer_2" data-name="Layer 2"><g id="Layer_1-2" data-name="Layer 1"><polyline class="cls-1" points="90.39 321.48 7.68 439.71 834.39 439.71 762.39 321.48"/><rect class="cls-1" x="90.39" y="227.48" width="672" height="98.6"/><rect class="cls-1" x="90.39" y="135.03" width="672" height="41.89"/><rect class="cls-1" x="90.39" y="114.09" width="672" height="20.95"/><path class="cls-1" d="M245.39,22.06s-28-5-26-21.58"/><path class="cls-1" d="M597.19,22.15s28-5,26-21.57"/><rect class="cls-1" x="394.39" y="114.08" width="54" height="47.92" rx="7.56"/><path class="cls-1" d="M8.27,204.93s66.58-16.67,78.53-24.24,672.26,0,672.26,0,58.08,20.83,72.7,24.24c13,3-26.24,19.69-34.77,22.72s-740.72,0-740.72,0S1.44,218.56,8.27,204.93Z"/><path class="cls-1" d="M799.39,94.38c-2.63,5-16.36,10.06-28.7,13.68-11,3.23-20.87,5.33-20.87,5.33s-163.53.59-328.5.89h-.23c-165-.3-328.49-.89-328.49-.89s-9.9-2.1-20.88-5.33C59.38,104.44,45.65,99.41,43,94.38c0,0,115.63-20.19,198.22-72.47H601.17C683.76,74.19,799.39,94.38,799.39,94.38Z"/><line class="cls-1" x1="426.39" y1="229.12" x2="426.39" y2="327.48"/><line class="cls-1" x1="610.39" y1="229.12" x2="610.39" y2="327.48"/><line class="cls-1" x1="245.39" y1="227.72" x2="245.39" y2="326.08"/><line class="cls-1" x1="335.39" y1="229.12" x2="335.39" y2="327.48"/><line class="cls-1" x1="518.39" y1="227.72" x2="518.39" y2="326.08"/><line class="cls-1" x1="688.39" y1="227.72" x2="688.39" y2="326.08"/><line class="cls-1" x1="165.39" y1="229.12" x2="165.39" y2="327.48"/><polyline class="cls-1" points="90.39 256.42 106.39 248.38 150.78 248.38 165.39 256.42"/><polyline class="cls-1" points="168.39 256.42 184.39 248.38 228.78 248.38 243.39 256.42"/><polyline class="cls-1" points="245.39 256.42 264.59 248.38 317.86 248.38 335.39 256.42"/><polyline class="cls-1" points="336.39 256.42 355.59 248.38 408.86 248.38 426.39 256.42"/><polyline class="cls-1" points="427.39 256.42 446.59 248.38 499.86 248.38 517.39 256.42"/><polyline class="cls-1" points="519.39 256.42 538.59 248.38 591.86 248.38 609.39 256.42"/><polyline class="cls-1" points="609.39 256.42 626.67 248.38 674.61 248.38 690.39 256.42"/><polyline class="cls-1" points="688.39 256.42 704.17 248.38 747.97 248.38 762.39 256.42"/><line class="cls-1" x1="75.39" y1="342.28" x2="775.39" y2="342.28"/><line class="cls-1" x1="49.39" y1="380.6" x2="798.39" y2="380.6"/><line class="cls-1" x1="381.39" y1="326.73" x2="356.09" y2="439.71"/><line class="cls-1" x1="219.28" y1="326.73" x2="168.39" y2="439.71"/><line class="cls-1" x1="286.26" y1="324.11" x2="250.58" y2="441.48"/><line class="cls-1" x1="490.79" y1="326.71" x2="516.08" y2="439.69"/><line class="cls-1" x1="644.89" y1="326.71" x2="695.79" y2="439.69"/><line class="cls-1" x1="580.91" y1="324.09" x2="616.6" y2="441.46"/><line class="cls-1" x1="205.89" y1="354.72" x2="276.42" y2="354.72"/><line class="cls-1" x1="373.89" y1="354.72" x2="497.39" y2="354.72"/><line class="cls-1" x1="373.89" y1="367.86" x2="497.39" y2="367.86"/><line class="cls-1" x1="366.39" y1="394.13" x2="505.39" y2="394.13"/><line class="cls-1" x1="366.39" y1="409.94" x2="505.39" y2="409.94"/><line class="cls-1" x1="359.39" y1="423.95" x2="512.39" y2="423.95"/><line class="cls-1" x1="189.08" y1="393.79" x2="265.08" y2="393.79"/><line class="cls-1" x1="181.58" y1="408.67" x2="260.02" y2="408.67"/><line class="cls-1" x1="175.65" y1="423.6" x2="256.01" y2="423.6"/><line class="cls-1" x1="200.85" y1="367.67" x2="273.02" y2="367.67"/><line class="cls-1" x1="660.18" y1="354.72" x2="589.65" y2="354.72"/><line class="cls-1" x1="676.99" y1="393.79" x2="600.99" y2="393.79"/><line class="cls-1" x1="684.49" y1="409.55" x2="606.05" y2="409.55"/><line class="cls-1" x1="690.42" y1="423.6" x2="610.06" y2="423.6"/><line class="cls-1" x1="665.22" y1="367.67" x2="593.05" y2="367.67"/></g></g></svg>