<svg width="1359" height="748" viewBox="0 0 1359 748" fill="none" xmlns="http://www.w3.org/2000/svg">
<rect x="1.5" y="1.5" width="1356" height="745" stroke="black" stroke-width="3"/>
<line x1="1" y1="451.5" x2="1359" y2="451.5" stroke="black" stroke-width="3"/>
<line x1="1" y1="143.5" x2="1359" y2="143.5" stroke="black" stroke-width="3"/>
<line x1="1" y1="528.5" x2="1359" y2="528.5" stroke="black" stroke-width="3"/>
<line x1="1" y1="220.5" x2="1359" y2="220.5" stroke="black" stroke-width="3"/>
<line x1="1" y1="605.5" x2="1359" y2="605.5" stroke="black" stroke-width="3"/>
<line x1="1" y1="297.5" x2="1359" y2="297.5" stroke="black" stroke-width="3"/>
<line x1="1" y1="374.5" x2="1359" y2="374.5" stroke="black" stroke-width="3"/>
<line x1="1" y1="66.5" x2="1359" y2="66.5" stroke="black" stroke-width="3"/>
<line x1="1" y1="682.5" x2="1359" y2="682.5" stroke="black" stroke-width="3"/>
<line x1="680.5" y1="746" x2="680.5" y2="1" stroke="black" stroke-width="3"/>
<line x1="910.5" y1="746" x2="910.5" y2="1" stroke="black" stroke-width="3"/>
<line x1="449.5" y1="747" x2="449.5" y2="2" stroke="black" stroke-width="3"/>
<line x1="987.5" y1="746" x2="987.5" y2="2" stroke="black" stroke-width="3"/>
<line x1="1218.5" y1="746" x2="1218.5" y2="2" stroke="black" stroke-width="3"/>
<line x1="756.5" y1="748" x2="756.5" y2="3" stroke="black" stroke-width="3"/>
<line x1="295.5" y1="745" x2="295.5" stroke="black" stroke-width="3"/>
<line x1="64.5" y1="746" x2="64.5" y2="2" stroke="black" stroke-width="3"/>
<line x1="603.5" y1="746" x2="603.5" y2="1" stroke="black" stroke-width="3"/>
<line x1="833.5" y1="746" x2="833.5" y2="1" stroke="black" stroke-width="3"/>
<line x1="372.5" y1="747" x2="372.5" y2="2" stroke="black" stroke-width="3"/>
<line x1="1141.5" y1="746" x2="1141.5" y2="2" stroke="black" stroke-width="3"/>
<line x1="526.5" y1="746" x2="526.5" y2="1" stroke="black" stroke-width="3"/>
<line x1="1064.5" y1="746" x2="1064.5" y2="2" stroke="black" stroke-width="3"/>
<line x1="1295.5" y1="746" x2="1295.5" y2="2" stroke="black" stroke-width="3"/>
<line x1="218.5" y1="747" x2="218.5" y2="2" stroke="black" stroke-width="3"/>
<line x1="141.5" y1="746" x2="141.5" y2="2" stroke="black" stroke-width="3"/>
</svg>
