<svg xmlns="http://www.w3.org/2000/svg" viewBox="0 0 771 495"><defs><style>.cls-1{fill:#fff;stroke:#000;stroke-miterlimit:10;stroke-width:8px;}</style></defs><g id="Layer_2" data-name="Layer 2"><g id="Layer_1-2" data-name="Layer 1"><rect class="cls-1" x="4" y="369.25" width="763" height="121.75" rx="6.71"/><rect class="cls-1" x="68.73" y="247.5" width="636" height="121.75" rx="6.71"/><rect class="cls-1" x="121.48" y="125.75" width="530.5" height="121.75" rx="6.71"/><rect class="cls-1" x="224.23" y="4" width="325" height="121.75" rx="6.71"/><line class="cls-1" x1="327.54" y1="125.75" x2="295.39" y2="491"/><line class="cls-1" x1="445.93" y1="125.72" x2="478.07" y2="490.97"/><line class="cls-1" x1="327.54" y1="150.49" x2="445.93" y2="150.49"/><line class="cls-1" x1="322.31" y1="183.49" x2="451.31" y2="183.49"/><line class="cls-1" x1="322.31" y1="216" x2="451.31" y2="216"/><line class="cls-1" x1="317.43" y1="275.49" x2="456.01" y2="275.49"/><line class="cls-1" x1="311.31" y1="308.49" x2="462.31" y2="308.49"/><line class="cls-1" x1="311.31" y1="341" x2="462.31" y2="341"/><line class="cls-1" x1="307.32" y1="397.49" x2="466.09" y2="397.49"/><line class="cls-1" x1="300.31" y1="430.49" x2="473.31" y2="430.49"/><line class="cls-1" x1="300.31" y1="463" x2="473.31" y2="463"/></g></g></svg>