<svg xmlns="http://www.w3.org/2000/svg" viewBox="0 0 530.74 458.45"><defs><style>.cls-1,.cls-3{fill:#fff;}.cls-1,.cls-2{stroke:#000;stroke-miterlimit:10;stroke-width:10px;}.cls-2{fill:none;}</style></defs><g id="Layer_2" data-name="Layer 2"><g id="Layer_1-2" data-name="Layer 1"><path class="cls-1" d="M525.74,117A112,112,0,0,1,416.4,229l.46-.8h-4l.83.83c.89,0,1.79,0,2.68,0L321.51,393.38c-26.32,45.57-92.09,45.57-118.41,0L108.16,228.94h3.66A112,112,0,1,1,229,114.35h72.71a112,112,0,0,1,224,2.68Z"/><path class="cls-1" d="M112,228.93h0Z"/><path class="cls-1" d="M416.86,228.22l-.46.8c-.89,0-1.79,0-2.68,0l-.83-.83Z"/><path class="cls-1" d="M111.82,228.93h0Z"/><path class="cls-1" d="M416.86,228.22l-.46.8c-.89,0-1.79,0-2.68,0l-.83-.83Z"/><line class="cls-2" x1="348.3" y1="114.35" x2="301.73" y2="114.35"/><line class="cls-2" x1="229.02" y1="114.35" x2="197.3" y2="114.35"/><circle class="cls-3" cx="187.17" cy="225.45" r="24.82"/><path d="M187.17,205.63a19.82,19.82,0,1,1-19.83,19.82,19.84,19.84,0,0,1,19.83-19.82m0-10A29.82,29.82,0,1,0,217,225.45a29.82,29.82,0,0,0-29.82-29.82Z"/><circle class="cls-3" cx="334.75" cy="225.45" r="24.82"/><path d="M334.75,205.63a19.82,19.82,0,1,1-19.82,19.82,19.84,19.84,0,0,1,19.82-19.82m0-10a29.82,29.82,0,1,0,29.82,29.82,29.82,29.82,0,0,0-29.82-29.82Z"/><circle cx="334.9" cy="225.92" r="11.1"/><path d="M334.9,219.83a6.1,6.1,0,1,1-6.09,6.09,6.1,6.1,0,0,1,6.09-6.09m0-10A16.1,16.1,0,1,0,351,225.92a16.09,16.09,0,0,0-16.1-16.09Z"/><circle cx="187.08" cy="225.92" r="11.1"/><path d="M187.08,219.83a6.1,6.1,0,1,1-6.1,6.09,6.1,6.1,0,0,1,6.1-6.09m0-10a16.1,16.1,0,1,0,16.1,16.09,16.09,16.09,0,0,0-16.1-16.09Z"/><path class="cls-2" d="M222.85,389.76s-62.27-10.1-94,38"/><path class="cls-2" d="M228.37,399.06s-63,3.75-83.41,57.57"/><path class="cls-2" d="M290.38,389.8s62.27-10.09,94,38"/><path class="cls-2" d="M284.85,399.11s63,3.74,83.42,57.57"/></g></g></svg>