<svg xmlns="http://www.w3.org/2000/svg" viewBox="0 0 2077.72 588"><defs><style>.cls-1{fill:#fff;}.cls-1,.cls-2,.cls-3{stroke:#000;stroke-miterlimit:10;stroke-width:8px;}.cls-2{fill:none;}</style></defs><g id="Layer_2" data-name="Layer 2"><g id="Layer_1-2" data-name="Layer 1"><line class="cls-1" y1="581.23" x2="2077.72" y2="583.23"/><rect class="cls-1" x="38.2" y="4" width="186" height="577"/><rect class="cls-1" x="472.52" y="128" width="160" height="454"/><rect class="cls-1" x="632.02" y="4" width="160" height="578"/><rect class="cls-1" x="224.52" y="248" width="160" height="334"/><rect class="cls-1" x="384.52" y="334" width="160" height="247"/><line class="cls-2" x1="63.91" y1="30.73" x2="198.49" y2="30.73"/><line class="cls-2" x1="63.91" y1="96.73" x2="198.49" y2="96.73"/><line class="cls-2" x1="63.91" y1="358.73" x2="198.49" y2="358.73"/><line class="cls-2" x1="63.91" y1="489.73" x2="198.49" y2="489.73"/><line class="cls-2" x1="63.91" y1="457.73" x2="198.49" y2="457.73"/><line class="cls-2" x1="63.91" y1="522.73" x2="198.49" y2="522.73"/><line class="cls-2" x1="63.91" y1="392.73" x2="198.49" y2="392.73"/><line class="cls-2" x1="63.91" y1="325.73" x2="198.49" y2="325.73"/><line class="cls-2" x1="63.91" y1="227.73" x2="198.49" y2="227.73"/><line class="cls-2" x1="63.91" y1="259.73" x2="198.49" y2="259.73"/><line class="cls-2" x1="63.91" y1="194.73" x2="198.49" y2="194.73"/><line class="cls-2" x1="63.91" y1="128.73" x2="198.49" y2="128.73"/><line class="cls-2" x1="63.91" y1="63.73" x2="198.49" y2="63.73"/><line class="cls-2" x1="63.91" y1="292.73" x2="198.49" y2="292.73"/><line class="cls-2" x1="63.91" y1="554.73" x2="198.49" y2="554.73"/><line class="cls-2" x1="63.91" y1="423.73" x2="198.49" y2="423.73"/><line class="cls-2" x1="404.91" y1="426.58" x2="523.52" y2="426.58"/><line class="cls-2" x1="404.91" y1="397.08" x2="523.52" y2="397.08"/><line class="cls-2" x1="404.91" y1="457" x2="523.52" y2="457"/><line class="cls-2" x1="404.91" y1="365.73" x2="523.52" y2="365.73"/><line class="cls-2" x1="404.91" y1="514.08" x2="460.52" y2="514.08"/><line class="cls-2" x1="404.91" y1="482.73" x2="460.52" y2="482.73"/><line class="cls-2" x1="63.91" y1="161.73" x2="198.49" y2="161.73"/><rect class="cls-3" x="258.92" y="350.43" width="6" height="29.67"/><rect class="cls-3" x="303.92" y="350.43" width="6" height="29.67"/><rect class="cls-3" x="344.92" y="350.43" width="6" height="29.67"/><rect class="cls-3" x="258.92" y="285.43" width="6" height="29.67"/><rect class="cls-3" x="303.92" y="284.43" width="6" height="29.67"/><rect class="cls-3" x="344.92" y="284.43" width="6" height="29.67"/><rect class="cls-3" x="257.92" y="482.43" width="6" height="29.67"/><rect class="cls-3" x="302.92" y="482.43" width="6" height="29.67"/><rect class="cls-3" x="343.92" y="482.43" width="6" height="29.67"/><rect class="cls-3" x="257.92" y="417.43" width="6" height="29.67"/><rect class="cls-3" x="302.92" y="416.43" width="6" height="29.67"/><rect class="cls-3" x="343.92" y="416.43" width="6" height="29.67"/><rect class="cls-3" x="509.92" y="205.92" width="6" height="19.1"/><rect class="cls-3" x="554.92" y="205.92" width="6" height="19.1"/><rect class="cls-3" x="595.92" y="205.92" width="6" height="19.1"/><rect class="cls-3" x="509.52" y="165" width="6" height="18.17" transform="translate(1025.04 348.17) rotate(180)"/><rect class="cls-3" x="554.92" y="163.43" width="6" height="19.1"/><rect class="cls-3" x="595.92" y="163.43" width="6" height="19.1"/><rect class="cls-3" x="508.92" y="290.9" width="6" height="19.1"/><rect class="cls-3" x="553.92" y="290.9" width="6" height="19.1"/><rect class="cls-3" x="594.92" y="290.9" width="6" height="19.1"/><rect class="cls-3" x="508.92" y="249.06" width="6" height="19.1"/><rect class="cls-3" x="553.92" y="248.41" width="6" height="19.1"/><rect class="cls-3" x="594.92" y="248.41" width="6" height="19.1"/><rect class="cls-3" x="594.92" y="375.92" width="6" height="19.1"/><rect class="cls-3" x="594.92" y="333.43" width="6" height="19.1"/><rect class="cls-3" x="593.92" y="460.9" width="6" height="19.1"/><rect class="cls-3" x="593.92" y="418.41" width="6" height="19.1"/><polyline class="cls-2" points="472.52 582 472.52 482.43 519.8 482.43 519.8 582.23"/><rect class="cls-1" x="662.02" y="34" width="32" height="32"/><rect class="cls-1" x="730.02" y="34" width="32" height="32"/><rect class="cls-1" x="662.52" y="94" width="32" height="32"/><rect class="cls-1" x="730.52" y="94" width="32" height="32"/><rect class="cls-1" x="663.52" y="154" width="32" height="32"/><rect class="cls-1" x="731.52" y="154" width="32" height="32"/><rect class="cls-1" x="663.52" y="214" width="32" height="32"/><rect class="cls-1" x="731.52" y="214" width="32" height="32"/><rect class="cls-1" x="664.02" y="274" width="32" height="32"/><rect class="cls-1" x="732.02" y="274" width="32" height="32"/><rect class="cls-1" x="664.52" y="334" width="32" height="32"/><rect class="cls-1" x="732.52" y="334" width="32" height="32"/><rect class="cls-1" x="665.52" y="394" width="32" height="32"/><rect class="cls-1" x="733.52" y="394" width="32" height="32"/><rect class="cls-1" x="665.52" y="454" width="32" height="32"/><rect class="cls-1" x="733.52" y="454" width="32" height="32"/><rect class="cls-1" x="666.52" y="514" width="32" height="32"/><rect class="cls-1" x="734.52" y="514" width="32" height="32"/><rect class="cls-1" x="1125.2" y="4" width="186" height="577"/><rect class="cls-1" x="1559.52" y="128" width="160" height="454"/><rect class="cls-1" x="1719.02" y="4" width="160" height="578"/><rect class="cls-1" x="1311.52" y="248" width="160" height="334"/><rect class="cls-1" x="1471.52" y="334" width="160" height="247"/><line class="cls-2" x1="1150.91" y1="30.73" x2="1285.49" y2="30.73"/><line class="cls-2" x1="1150.91" y1="96.73" x2="1285.49" y2="96.73"/><line class="cls-2" x1="1150.91" y1="358.73" x2="1285.49" y2="358.73"/><line class="cls-2" x1="1150.91" y1="489.73" x2="1285.49" y2="489.73"/><line class="cls-2" x1="1150.91" y1="457.73" x2="1285.49" y2="457.73"/><line class="cls-2" x1="1150.91" y1="522.73" x2="1285.49" y2="522.73"/><line class="cls-2" x1="1150.91" y1="392.73" x2="1285.49" y2="392.73"/><line class="cls-2" x1="1150.91" y1="325.73" x2="1285.49" y2="325.73"/><line class="cls-2" x1="1150.91" y1="227.73" x2="1285.49" y2="227.73"/><line class="cls-2" x1="1150.91" y1="259.73" x2="1285.49" y2="259.73"/><line class="cls-2" x1="1150.91" y1="194.73" x2="1285.49" y2="194.73"/><line class="cls-2" x1="1150.91" y1="128.73" x2="1285.49" y2="128.73"/><line class="cls-2" x1="1150.91" y1="63.73" x2="1285.49" y2="63.73"/><line class="cls-2" x1="1150.91" y1="292.73" x2="1285.49" y2="292.73"/><line class="cls-2" x1="1150.91" y1="554.73" x2="1285.49" y2="554.73"/><line class="cls-2" x1="1150.91" y1="423.73" x2="1285.49" y2="423.73"/><line class="cls-2" x1="1491.91" y1="426.58" x2="1610.52" y2="426.58"/><line class="cls-2" x1="1491.91" y1="397.08" x2="1610.52" y2="397.08"/><line class="cls-2" x1="1491.91" y1="457" x2="1610.52" y2="457"/><line class="cls-2" x1="1491.91" y1="365.73" x2="1610.52" y2="365.73"/><line class="cls-2" x1="1491.91" y1="514.08" x2="1547.52" y2="514.08"/><line class="cls-2" x1="1491.91" y1="482.73" x2="1547.52" y2="482.73"/><line class="cls-2" x1="1150.91" y1="161.73" x2="1285.49" y2="161.73"/><rect class="cls-3" x="1345.92" y="350.43" width="6" height="29.67"/><rect class="cls-3" x="1390.92" y="350.43" width="6" height="29.67"/><rect class="cls-3" x="1431.92" y="350.43" width="6" height="29.67"/><rect class="cls-3" x="1345.92" y="285.43" width="6" height="29.67"/><rect class="cls-3" x="1390.92" y="284.43" width="6" height="29.67"/><rect class="cls-3" x="1431.92" y="284.43" width="6" height="29.67"/><rect class="cls-3" x="1344.92" y="482.43" width="6" height="29.67"/><rect class="cls-3" x="1389.92" y="482.43" width="6" height="29.67"/><rect class="cls-3" x="1430.92" y="482.43" width="6" height="29.67"/><rect class="cls-3" x="1344.92" y="417.43" width="6" height="29.67"/><rect class="cls-3" x="1389.92" y="416.43" width="6" height="29.67"/><rect class="cls-3" x="1430.92" y="416.43" width="6" height="29.67"/><rect class="cls-3" x="1596.92" y="205.92" width="6" height="19.1"/><rect class="cls-3" x="1641.92" y="205.92" width="6" height="19.1"/><rect class="cls-3" x="1682.92" y="205.92" width="6" height="19.1"/><rect class="cls-3" x="1596.52" y="165" width="6" height="18.17" transform="translate(3199.04 348.17) rotate(180)"/><rect class="cls-3" x="1641.92" y="163.43" width="6" height="19.1"/><rect class="cls-3" x="1682.92" y="163.43" width="6" height="19.1"/><rect class="cls-3" x="1595.92" y="290.9" width="6" height="19.1"/><rect class="cls-3" x="1640.92" y="290.9" width="6" height="19.1"/><rect class="cls-3" x="1681.92" y="290.9" width="6" height="19.1"/><rect class="cls-3" x="1595.92" y="249.06" width="6" height="19.1"/><rect class="cls-3" x="1640.92" y="248.41" width="6" height="19.1"/><rect class="cls-3" x="1681.92" y="248.41" width="6" height="19.1"/><rect class="cls-3" x="1681.92" y="375.92" width="6" height="19.1"/><rect class="cls-3" x="1681.92" y="333.43" width="6" height="19.1"/><rect class="cls-3" x="1680.92" y="460.9" width="6" height="19.1"/><rect class="cls-3" x="1680.92" y="418.41" width="6" height="19.1"/><polyline class="cls-2" points="1559.52 582 1559.52 482.43 1606.8 482.43 1606.8 582.23"/><rect class="cls-1" x="1879.52" y="337" width="160" height="247"/><line class="cls-2" x1="1899.91" y1="429.58" x2="2018.52" y2="429.58"/><line class="cls-2" x1="1899.91" y1="400.08" x2="2018.52" y2="400.08"/><line class="cls-2" x1="1899.91" y1="460" x2="2018.52" y2="460"/><line class="cls-2" x1="1899.91" y1="368.73" x2="2018.52" y2="368.73"/><line class="cls-2" x1="1899.91" y1="517.08" x2="1955.52" y2="517.08"/><line class="cls-2" x1="1899.91" y1="485.73" x2="1955.52" y2="485.73"/><polyline class="cls-2" points="1967.52 585 1967.52 485.43 2014.8 485.43 2014.8 585.23"/><rect class="cls-1" x="1749.02" y="34" width="32" height="32"/><rect class="cls-1" x="1817.02" y="34" width="32" height="32"/><rect class="cls-1" x="1749.52" y="94" width="32" height="32"/><rect class="cls-1" x="1817.52" y="94" width="32" height="32"/><rect class="cls-1" x="1750.52" y="154" width="32" height="32"/><rect class="cls-1" x="1818.52" y="154" width="32" height="32"/><rect class="cls-1" x="1750.52" y="214" width="32" height="32"/><rect class="cls-1" x="1818.52" y="214" width="32" height="32"/><rect class="cls-1" x="1751.02" y="274" width="32" height="32"/><rect class="cls-1" x="1819.02" y="274" width="32" height="32"/><rect class="cls-1" x="1751.52" y="334" width="32" height="32"/><rect class="cls-1" x="1819.52" y="334" width="32" height="32"/><rect class="cls-1" x="1752.52" y="394" width="32" height="32"/><rect class="cls-1" x="1820.52" y="394" width="32" height="32"/><rect class="cls-1" x="1752.52" y="454" width="32" height="32"/><rect class="cls-1" x="1820.52" y="454" width="32" height="32"/><rect class="cls-1" x="1753.52" y="514" width="32" height="32"/><rect class="cls-1" x="1821.52" y="514" width="32" height="32"/><rect class="cls-1" x="792.52" y="206" width="333" height="375"/><rect class="cls-1" x="915.52" y="41" width="210" height="165"/><rect class="cls-3" x="955.67" y="115.78" width="6" height="19.1"/><rect class="cls-3" x="1000.67" y="115.78" width="6" height="19.1"/><rect class="cls-3" x="1041.67" y="115.78" width="6" height="19.1"/><rect class="cls-3" x="955.28" y="74.85" width="6" height="18.17" transform="translate(1916.55 167.88) rotate(180)"/><rect class="cls-3" x="1000.67" y="73.29" width="6" height="19.1"/><rect class="cls-3" x="1041.67" y="73.29" width="6" height="19.1"/><rect class="cls-3" x="954.67" y="158.91" width="6" height="19.1"/><rect class="cls-3" x="999.67" y="158.26" width="6" height="19.1"/><rect class="cls-3" x="1040.67" y="158.26" width="6" height="19.1"/><rect class="cls-3" x="1079.67" y="115.78" width="6" height="19.1"/><rect class="cls-3" x="1079.67" y="73.29" width="6" height="19.1"/><rect class="cls-3" x="1078.67" y="158.26" width="6" height="19.1"/><polyline class="cls-2" points="836.52 580 836.52 480.43 883.8 480.43 883.8 580.23"/><polyline class="cls-2" points="886.52 580 886.52 480.43 933.8 480.43 933.8 580.23"/><line class="cls-2" x1="792.51" y1="243.19" x2="1125.52" y2="243.19"/><line class="cls-2" x1="792.51" y1="276.19" x2="1125.52" y2="276.19"/><rect class="cls-1" x="833.02" y="306" width="32" height="32"/><rect class="cls-1" x="901.02" y="306" width="32" height="32"/><rect class="cls-1" x="833.52" y="366" width="32" height="32"/><rect class="cls-1" x="901.52" y="366" width="32" height="32"/><rect class="cls-1" x="834.52" y="426" width="32" height="32"/><rect class="cls-1" x="902.52" y="426" width="32" height="32"/><rect class="cls-1" x="970.02" y="306" width="32" height="32"/><rect class="cls-1" x="1038.02" y="306" width="32" height="32"/><rect class="cls-1" x="970.52" y="366" width="32" height="32"/><rect class="cls-1" x="1038.52" y="366" width="32" height="32"/><rect class="cls-1" x="971.52" y="426" width="32" height="32"/><rect class="cls-1" x="1039.52" y="426" width="32" height="32"/><rect class="cls-1" x="969.52" y="486" width="32" height="32"/><rect class="cls-1" x="1037.52" y="486" width="32" height="32"/></g></g></svg>