<svg xmlns="http://www.w3.org/2000/svg" viewBox="0 0 813.89 680.33"><defs><style>.cls-1{fill:#fff;}.cls-1,.cls-2{stroke:#000;stroke-miterlimit:10;stroke-width:8px;}</style></defs><g id="Layer_2" data-name="Layer 2"><g id="Layer_1-2" data-name="Layer 1"><rect class="cls-1" x="13.72" y="409.09" width="786" height="265"/><rect class="cls-1" x="123.72" y="368.09" width="566" height="40"/><rect class="cls-1" x="231.72" y="254.09" width="350" height="114"/><path class="cls-1" d="M594.91,254.09H218.54a5.72,5.72,0,0,1-5.73-5.87c3.1-104.42,88.74-188.13,193.91-188.13S597.53,143.8,600.64,248.22A5.72,5.72,0,0,1,594.91,254.09Z"/><rect class="cls-1" x="41.72" y="311.09" width="82" height="97"/><path class="cls-1" d="M122,310.29H43.48A1.76,1.76,0,0,1,42,307.65l39.25-68.12a1.76,1.76,0,0,1,3,0l39.24,68.12A1.76,1.76,0,0,1,122,310.29Z"/><path class="cls-1" d="M547.42,522.09H266c-4.84,0-7.87-1.44-5.46-2.59l140.71-67.17c2.43-1.16,8.5-1.16,10.92,0L552.87,519.5C555.29,520.65,552.26,522.09,547.42,522.09Z"/><rect class="cls-1" x="689.37" y="311.23" width="82" height="97"/><path class="cls-1" d="M769.61,310.43H691.13a1.75,1.75,0,0,1-1.52-2.63l39.24-68.13a1.76,1.76,0,0,1,3,0l39.24,68.13A1.76,1.76,0,0,1,769.61,310.43Z"/><line class="cls-1" x1="0.01" y1="522.03" x2="813.88" y2="522.03"/><line class="cls-1" x1="406.72" y1="522.09" x2="406.72" y2="672.33"/><line class="cls-1" x1="524.72" y1="522.09" x2="524.72" y2="672.33"/><line class="cls-1" x1="689.72" y1="524.09" x2="689.72" y2="674.33"/><line class="cls-1" x1="123.72" y1="524.09" x2="123.72" y2="674.33"/><line class="cls-1" x1="277.72" y1="522.09" x2="277.72" y2="672.33"/><line class="cls-1" x1="342.72" y1="522.09" x2="342.72" y2="672.33"/><line class="cls-1" x1="462.72" y1="522.09" x2="462.72" y2="672.33"/><line class="cls-1" x1="530.72" y1="104.9" x2="530.72" y2="254.33"/><line class="cls-1" x1="283.72" y1="104.07" x2="283.72" y2="254.33"/><line class="cls-1" x1="0.01" y1="674.33" x2="813.88" y2="676.33"/><polyline class="cls-1" points="412.7 0 412.7 60.09 412.7 254.33"/><line class="cls-1" x1="391.75" y1="19.09" x2="433.66" y2="19.09"/><rect class="cls-2" x="409.72" y="296.09" width="6" height="29.67"/><rect class="cls-2" x="527.72" y="296.09" width="6" height="29.67"/><rect class="cls-2" x="727.72" y="338.09" width="6" height="22"/><rect class="cls-2" x="79.72" y="338.09" width="6" height="22"/><rect class="cls-2" x="280.72" y="296.09" width="6" height="29.67"/><rect class="cls-2" x="199.72" y="450.09" width="6" height="29.67"/><rect class="cls-2" x="70.72" y="450.09" width="6" height="29.67"/><rect class="cls-2" x="741.72" y="450.09" width="6" height="29.67"/><rect class="cls-2" x="612.72" y="450.09" width="6" height="29.67"/></g></g></svg>