<svg xmlns="http://www.w3.org/2000/svg" viewBox="0 0 813.89 611.59"><defs><style>.cls-1{fill:#fff;}.cls-1,.cls-2,.cls-3{stroke:#000;stroke-miterlimit:10;stroke-width:8px;}.cls-2{fill:none;}</style></defs><g id="Layer_2" data-name="Layer 2"><g id="Layer_1-2" data-name="Layer 1"><line class="cls-1" x1="0.01" y1="605.59" x2="813.88" y2="607.59"/><rect class="cls-1" x="23.4" y="28.35" width="186" height="577"/><rect class="cls-1" x="457.72" y="152.35" width="160" height="454"/><rect class="cls-1" x="617.22" y="28.35" width="160" height="578"/><rect class="cls-1" x="209.72" y="272.35" width="160" height="334"/><rect class="cls-1" x="369.72" y="358.35" width="160" height="247"/><circle class="cls-1" cx="406.22" cy="133.85" r="105.5"/><line class="cls-1" x1="406.22" x2="406.22" y2="28.35"/><line class="cls-1" x1="300.72" y1="134.35" x2="511.72" y2="134.35"/><line class="cls-1" x1="505" y1="90.73" x2="307.45" y2="90.73"/><line class="cls-1" x1="332.53" y1="58.37" x2="479.92" y2="58.37"/><line class="cls-1" x1="506" y1="172.37" x2="308.45" y2="172.37"/><line class="cls-1" x1="333.53" y1="208.73" x2="480.92" y2="208.73"/><ellipse class="cls-2" cx="406.72" cy="134.35" rx="20" ry="105"/><ellipse class="cls-2" cx="406.72" cy="134.35" rx="47" ry="105"/><ellipse class="cls-2" cx="407.72" cy="133.85" rx="82" ry="105.5"/><line class="cls-1" x1="489.72" y1="37.38" x2="501.72" y2="21.35"/><line class="cls-1" x1="496.79" y1="47.33" x2="514.66" y2="31.91"/><line class="cls-1" x1="505" y1="55.09" x2="523.72" y2="50.35"/><line class="cls-1" x1="303.61" y1="202.03" x2="285.2" y2="209.88"/><line class="cls-1" x1="311.6" y1="211.25" x2="292.38" y2="224.95"/><line class="cls-1" x1="317.19" y1="221.06" x2="308.16" y2="238.13"/><line class="cls-2" x1="49.11" y1="55.09" x2="183.7" y2="55.09"/><line class="cls-2" x1="49.11" y1="121.09" x2="183.7" y2="121.09"/><line class="cls-2" x1="49.11" y1="383.09" x2="183.7" y2="383.09"/><line class="cls-2" x1="49.11" y1="514.09" x2="183.7" y2="514.09"/><line class="cls-2" x1="49.11" y1="482.09" x2="183.7" y2="482.09"/><line class="cls-2" x1="49.11" y1="547.09" x2="183.7" y2="547.09"/><line class="cls-2" x1="49.11" y1="417.09" x2="183.7" y2="417.09"/><line class="cls-2" x1="49.11" y1="350.09" x2="183.7" y2="350.09"/><line class="cls-2" x1="49.11" y1="252.09" x2="183.7" y2="252.09"/><line class="cls-2" x1="49.11" y1="284.09" x2="183.7" y2="284.09"/><line class="cls-2" x1="49.11" y1="219.09" x2="183.7" y2="219.09"/><line class="cls-2" x1="49.11" y1="153.09" x2="183.7" y2="153.09"/><line class="cls-2" x1="49.11" y1="88.09" x2="183.7" y2="88.09"/><line class="cls-2" x1="49.11" y1="317.09" x2="183.7" y2="317.09"/><line class="cls-2" x1="49.11" y1="579.09" x2="183.7" y2="579.09"/><line class="cls-2" x1="49.11" y1="448.09" x2="183.7" y2="448.09"/><line class="cls-2" x1="390.11" y1="450.93" x2="508.72" y2="450.93"/><line class="cls-2" x1="390.11" y1="421.43" x2="508.72" y2="421.43"/><line class="cls-2" x1="390.11" y1="481.35" x2="508.72" y2="481.35"/><line class="cls-2" x1="390.11" y1="390.09" x2="508.72" y2="390.09"/><line class="cls-2" x1="390.11" y1="538.43" x2="445.72" y2="538.43"/><line class="cls-2" x1="390.11" y1="507.09" x2="445.72" y2="507.09"/><line class="cls-2" x1="49.11" y1="186.09" x2="183.7" y2="186.09"/><rect class="cls-3" x="244.12" y="374.78" width="6" height="29.67"/><rect class="cls-3" x="289.12" y="374.78" width="6" height="29.67"/><rect class="cls-3" x="330.12" y="374.78" width="6" height="29.67"/><rect class="cls-3" x="244.12" y="309.78" width="6" height="29.67"/><rect class="cls-3" x="289.12" y="308.78" width="6" height="29.67"/><rect class="cls-3" x="330.12" y="308.78" width="6" height="29.67"/><rect class="cls-3" x="243.12" y="506.78" width="6" height="29.67"/><rect class="cls-3" x="288.12" y="506.78" width="6" height="29.67"/><rect class="cls-3" x="329.12" y="506.78" width="6" height="29.67"/><rect class="cls-3" x="243.12" y="441.78" width="6" height="29.67"/><rect class="cls-3" x="288.12" y="440.78" width="6" height="29.67"/><rect class="cls-3" x="329.12" y="440.78" width="6" height="29.67"/><rect class="cls-3" x="495.12" y="230.27" width="6" height="19.1"/><rect class="cls-3" x="540.12" y="230.27" width="6" height="19.1"/><rect class="cls-3" x="581.12" y="230.27" width="6" height="19.1"/><rect class="cls-3" x="498.72" y="189.35" width="2.4" height="18.17"/><rect class="cls-3" x="494.72" y="197.35" width="2.4" height="10.17"/><rect class="cls-3" x="540.12" y="187.78" width="6" height="19.1"/><rect class="cls-3" x="581.12" y="187.78" width="6" height="19.1"/><rect class="cls-3" x="494.12" y="315.25" width="6" height="19.1"/><rect class="cls-3" x="539.12" y="315.25" width="6" height="19.1"/><rect class="cls-3" x="580.12" y="315.25" width="6" height="19.1"/><rect class="cls-3" x="494.12" y="273.41" width="6" height="19.1"/><rect class="cls-3" x="539.12" y="272.76" width="6" height="19.1"/><rect class="cls-3" x="580.12" y="272.76" width="6" height="19.1"/><rect class="cls-3" x="580.12" y="400.27" width="6" height="19.1"/><rect class="cls-3" x="580.12" y="357.78" width="6" height="19.1"/><rect class="cls-3" x="579.12" y="485.25" width="6" height="19.1"/><rect class="cls-3" x="579.12" y="442.76" width="6" height="19.1"/><polyline class="cls-2" points="457.72 606.35 457.72 506.79 505 506.79 505 606.59"/><rect class="cls-1" x="647.22" y="58.35" width="32" height="32"/><rect class="cls-1" x="715.22" y="58.35" width="32" height="32"/><rect class="cls-1" x="647.72" y="118.35" width="32" height="32"/><rect class="cls-1" x="715.72" y="118.35" width="32" height="32"/><rect class="cls-1" x="648.72" y="178.35" width="32" height="32"/><rect class="cls-1" x="716.72" y="178.35" width="32" height="32"/><rect class="cls-1" x="648.72" y="238.35" width="32" height="32"/><rect class="cls-1" x="716.72" y="238.35" width="32" height="32"/><rect class="cls-1" x="649.22" y="298.35" width="32" height="32"/><rect class="cls-1" x="717.22" y="298.35" width="32" height="32"/><rect class="cls-1" x="649.72" y="358.35" width="32" height="32"/><rect class="cls-1" x="717.72" y="358.35" width="32" height="32"/><rect class="cls-1" x="650.72" y="418.35" width="32" height="32"/><rect class="cls-1" x="718.72" y="418.35" width="32" height="32"/><rect class="cls-1" x="650.72" y="478.35" width="32" height="32"/><rect class="cls-1" x="718.72" y="478.35" width="32" height="32"/><rect class="cls-1" x="651.72" y="538.35" width="32" height="32"/><rect class="cls-1" x="719.72" y="538.35" width="32" height="32"/></g></g></svg>